# xmcd CD database file
#
# Track frame offsets:
#	183
#	32133
#	61233
#	80808
#	110958
#	135718
#	160233
#	182433
#	204333
#
# Disc length: 2995 seconds
#
# Revision: 3
# Processed by: cddbd v1.5.2PL0 Copyright (c) Steve Scherf et al.
# Submitted via: CDex 1.51
#
DISCID=7b0bb109
DTITLE=Frank Nimsgern - Contrasts
DYEAR=1900
DGENRE=Jazz
TTITLE0=Folk Funk
TTITLE1=Way To Your Heart
TTITLE2=Contrasts
TTITLE3=Un Poco Vivo
TTITLE4=New Calypso
TTITLE5=Confrontation
TTITLE6=Overkill
TTITLE7=Llovely Toys
TTITLE8=Controlled Contact
EXTD=delta music
EXTT0=
EXTT1=
EXTT2=
EXTT3=
EXTT4=
EXTT5=
EXTT6=
EXTT7=
EXTT8=
PLAYORDER=
